<?xml version="1.0" standalone="no"?>
<!DOCTYPE svg PUBLIC "-//W3C//DTD SVG 20010904//EN"
 "http://www.w3.org/TR/2001/REC-SVG-20010904/DTD/svg10.dtd">
<svg version="1.0" xmlns="http://www.w3.org/2000/svg"
 width="250.000000pt" height="250.000000pt" viewBox="0 0 561.000000 565.000000"
 preserveAspectRatio="xMidYMid meet">

<g transform="translate(0.000000,565.000000) scale(0.100000,-0.100000)"
fill="#000000" stroke="none">
<path fill="red" d="M2698 5406 c-52 -53 -94 -134 -103 -198 -7 -45 -8 -47 -29 -36 -27
15 -85 11 -113 -7 -30 -20 -49 -85 -34 -113 15 -29 14 -32 -11 -32 -66 0 -230
-119 -244 -177 -16 -61 120 -159 247 -178 l44 -7 -3 -39 c-3 -32 1 -43 27 -70
26 -26 37 -30 73 -27 l42 3 17 -56 c9 -31 31 -77 48 -103 33 -48 103 -106 128
-106 25 0 105 84 134 142 16 32 32 77 35 101 l6 42 40 -3 c55 -6 98 34 98 90
0 33 3 38 28 44 90 19 158 58 207 118 44 54 41 77 -21 138 -55 55 -132 96
-195 104 -45 6 -49 9 -43 28 19 56 -6 115 -58 137 -24 10 -35 10 -49 0 -15 -9
-20 -9 -23 1 -3 7 -12 37 -21 66 -17 54 -76 138 -117 166 -37 26 -63 19 -110
-28z m123 -13 c45 -41 88 -118 99 -175 8 -43 8 -43 -50 -23 -55 19 -133 19
-199 -1 -29 -8 -55 -13 -58 -11 -8 8 18 90 40 128 40 65 92 118 119 119 5 0
26 -17 49 -37z m46 -219 c111 -38 188 -120 217 -233 14 -55 16 -78 7 -124 -28
-150 -124 -248 -275 -278 -134 -27 -276 45 -344 176 -36 71 -42 179 -13 256
62 165 249 257 408 203z m173 -16 c12 -13 20 -35 20 -55 0 -18 -1 -33 -3 -33
-10 0 -105 99 -100 104 14 14 63 5 83 -16z m-488 -1 c15 -5 9 -15 -32 -56 -28
-28 -50 -55 -50 -61 0 -20 -18 -9 -30 19 -16 41 8 87 53 99 17 5 34 8 37 7 3
-1 13 -5 22 -8z m655 -168 c50 -25 143 -113 143 -136 0 -20 -69 -91 -114 -118
-50 -29 -134 -51 -146 -39 -6 6 -4 29 5 58 19 62 19 169 0 221 -8 22 -15 42
-15 44 0 10 85 -10 127 -30z m-762 4 c-29 -78 -30 -189 0 -260 8 -19 12 -39 9
-44 -16 -26 -163 27 -219 78 -60 55 -61 59 -30 103 34 48 121 108 184 125 62
18 64 18 56 -2z m636 -340 c3 -35 -2 -48 -27 -70 -24 -22 -63 -30 -77 -16 -9
8 74 101 91 102 6 1 13 -7 13 -16z m-491 -107 c0 -3 -15 -6 -34 -6 -42 0 -86
33 -86 65 0 54 10 54 66 0 29 -29 54 -55 54 -59z m347 -41 c-4 -25 -18 -68
-32 -96 -26 -51 -99 -129 -121 -129 -20 0 -111 93 -133 137 -11 22 -25 60 -30
83 -9 40 -8 42 12 37 135 -32 131 -31 213 -10 44 11 83 21 88 22 5 1 6 -19 3
-44z"/>
<path fill="green" d="M2686 4958 c-29 -25 -39 -43 -43 -74 -10 -76 50 -154 118 -154 133 0
188 172 76 240 -50 31 -106 26 -151 -12z m166 -27 c32 -36 38 -93 12 -129 -18
-26 -65 -52 -94 -52 -34 0 -78 28 -95 60 -25 49 -19 88 20 127 33 33 39 35 82
30 37 -4 54 -12 75 -36z"/>
<circle cx="200" cy="4450" r="80" fill="green" />
<path fill="blue" d="M3200 5401 c0 -5 15 -13 33 -16 50 -11 163 -61 211 -94 68 -47 154
-129 188 -180 17 -25 32 -48 34 -49 1 -2 29 4 61 14 79 23 264 24 352 1 62
-17 85 -16 65 2 -5 5 -52 31 -104 57 -227 116 -487 211 -695 254 -107 22 -145
25 -145 11z m250 -56 c85 -22 260 -80 335 -111 90 -38 239 -107 250 -116 5 -5
-31 -5 -80 -2 -64 4 -118 1 -185 -10 l-95 -17 -25 33 c-52 70 -170 175 -236
212 -38 20 -60 35 -49 32 11 -3 49 -12 85 -21z"/>
<path fill="blue" d="M2185 5373 c-129 -25 -385 -119 -558 -206 -104 -52 -274 -158 -347
-216 -45 -36 -12 -35 67 2 43 20 106 43 139 51 68 17 235 21 297 7 l38 -9 45
68 c72 109 226 239 320 270 46 16 46 42 -1 33z m-85 -47 c0 -2 -19 -16 -42
-31 -53 -34 -185 -168 -217 -221 l-24 -39 -161 0 c-140 -1 -168 -3 -218 -22
-32 -12 -58 -20 -58 -18 0 7 113 80 183 119 94 53 256 122 397 171 126 44 140
48 140 41z"/>
<path fill="red" d="M4490 4727 c-53 -12 -142 -56 -155 -77 -3 -6 -17 3 -31 19 -13 16
-36 32 -50 35 -33 9 -91 -10 -104 -34 -9 -17 -14 -16 -82 18 -67 34 -80 37
-160 37 -50 0 -92 -5 -98 -11 -18 -18 -24 -119 -10 -184 7 -33 27 -82 46 -110
l33 -51 -23 -10 c-28 -13 -46 -48 -46 -91 0 -22 10 -40 35 -64 20 -19 31 -35
25 -39 -6 -4 -23 -30 -38 -58 -24 -47 -27 -63 -27 -154 0 -56 4 -105 8 -110 5
-4 43 -8 85 -8 85 0 175 27 227 69 l29 23 24 -28 c19 -24 32 -29 67 -29 45 0
95 29 95 56 0 19 0 19 70 -17 104 -52 279 -50 281 4 5 106 -14 184 -58 249
-28 40 -32 53 -22 59 8 5 20 13 28 17 7 5 17 29 21 53 8 41 6 45 -31 82 l-39
39 24 42 c47 80 59 234 21 266 -21 18 -84 21 -145 7z m126 -21 c16 -12 19 -27
19 -93 -1 -78 -18 -136 -58 -187 -14 -19 -15 -18 -33 20 -26 55 -101 126 -156
149 -27 11 -48 23 -48 26 0 22 98 76 161 88 66 13 93 12 115 -3z m-605 -11
c47 -17 119 -61 119 -73 0 -4 -25 -20 -55 -36 -62 -32 -126 -98 -152 -157 -9
-22 -21 -39 -25 -39 -14 0 -65 87 -78 135 -15 54 -8 164 12 176 22 14 132 10
179 -6z m263 -26 c43 -34 33 -44 -42 -44 -64 0 -72 3 -72 25 0 12 49 39 71 40
9 0 28 -9 43 -21z m107 -92 c196 -91 244 -362 92 -514 -70 -70 -139 -98 -243
-98 -72 0 -93 4 -137 27 -74 38 -119 83 -153 152 -69 139 -24 313 104 401 29
20 73 43 97 51 64 20 173 12 240 -19z m252 -229 c23 -30 18 -67 -13 -98 -32
-32 -40 -24 -40 39 0 33 -3 67 -6 76 -11 27 36 14 59 -17z m-740 -85 c4 -69
-3 -76 -40 -41 -32 30 -30 72 4 106 31 30 30 32 36 -65z m754 -162 c13 -30 27
-81 30 -115 7 -75 -2 -85 -81 -93 -65 -7 -135 9 -195 44 l-44 25 51 30 c64 36
125 105 148 164 l17 45 25 -23 c14 -13 36 -47 49 -77z m-656 -59 c19 -19 60
-47 92 -64 l58 -31 -21 -22 c-31 -33 -125 -66 -206 -72 -82 -7 -87 -3 -99 77
-8 56 24 165 62 210 l26 31 27 -48 c15 -27 43 -63 61 -81z m339 -91 c0 -19
-46 -61 -70 -65 -22 -3 -80 18 -80 28 0 3 -2 10 -5 18 -4 10 5 12 38 10 34 -3
77 4 115 17 1 1 2 -3 2 -8z"/>
<path fill="green" d="M4185 4398 c-81 -46 -94 -168 -24 -220 33 -25 110 -26 145 -3 31 20
64 73 64 103 0 92 -109 163 -185 120z m108 -19 c72 -33 75 -146 5 -189 -61
-37 -122 -21 -153 40 -20 39 -19 69 5 108 30 48 89 66 143 41z"/>
<path fill="red" d="M910 4655 c-17 -20 -18 -147 -2 -202 7 -23 28 -64 46 -92 l34 -51
-26 -12 c-67 -32 -74 -135 -11 -172 17 -10 28 -23 25 -29 -53 -120 -59 -142
-53 -213 3 -40 11 -82 17 -94 11 -21 17 -22 85 -18 73 5 185 47 221 83 14 14
19 13 46 -10 16 -14 41 -25 54 -25 31 0 80 25 87 44 5 12 17 9 68 -17 56 -29
71 -32 150 -32 54 0 93 5 100 12 20 20 29 95 18 156 -11 61 -36 120 -67 153
-18 19 -18 20 5 44 29 31 31 87 3 123 -18 23 -18 26 -3 38 25 21 70 128 76
184 9 80 0 103 -42 115 -85 24 -214 2 -279 -47 -18 -14 -34 -23 -36 -22 -1 2
-9 19 -16 37 -28 71 -122 80 -165 16 l-21 -31 -34 23 c-52 34 -125 54 -201 54
-48 0 -70 -4 -79 -15z m237 -41 c31 -16 58 -34 60 -40 2 -6 -15 -19 -39 -30
-56 -25 -115 -87 -145 -151 -13 -29 -26 -53 -28 -53 -12 0 -56 93 -70 145 -19
72 -12 151 13 159 10 3 48 3 85 2 51 -3 82 -11 124 -32z m206 25 c14 -6 29
-21 35 -33 10 -22 9 -23 -64 -23 -41 0 -74 2 -74 4 0 15 25 46 43 53 30 12 32
12 60 -1z m404 -34 c36 -50 -39 -275 -92 -275 -6 0 -21 24 -33 53 -23 56 -97
139 -146 164 -25 13 -27 17 -14 29 8 8 36 23 64 34 68 28 199 24 221 -5z
m-287 -74 c75 -38 133 -111 160 -199 18 -60 20 -77 10 -135 -12 -77 -54 -157
-108 -204 -142 -126 -363 -95 -473 66 -124 181 -33 425 186 498 59 19 157 8
225 -26z m224 -237 c20 -8 21 -71 2 -96 -25 -33 -36 -20 -36 42 0 60 4 66 34
54z m-708 -53 c1 -21 4 -55 8 -75 8 -43 -6 -47 -41 -14 -28 26 -31 82 -6 110
25 28 38 21 39 -21z m718 -143 c41 -63 61 -142 51 -203 -8 -59 -27 -69 -125
-63 -62 4 -88 10 -131 35 -29 16 -54 34 -56 39 -2 6 11 17 29 26 60 29 126 97
155 159 15 32 31 59 35 59 4 0 23 -24 42 -52z m-674 -28 c19 -45 109 -124 165
-145 28 -10 54 -22 59 -26 14 -12 -71 -66 -141 -90 -61 -20 -142 -23 -160 -6
-3 4 -8 37 -10 74 -6 71 9 135 45 195 21 35 27 35 42 -2z m390 -184 c0 -19
-22 -35 -58 -42 -25 -5 -36 -1 -59 22 l-28 29 65 5 c73 6 80 4 80 -14z"/>
<path fill="green" d="M1275 4359 c-37 -18 -65 -71 -65 -123 0 -41 5 -53 33 -80 40 -41 92
-52 141 -32 90 38 101 179 17 229 -32 18 -94 21 -126 6z m128 -29 c81 -64 35
-195 -69 -195 -109 0 -148 140 -56 198 37 23 94 21 125 -3z"/>
<path fill="orange" d="M3342 4340 c-98 -35 -160 -87 -202 -169 -15 -30 -27 -40 -54 -45 -48
-9 -148 -78 -180 -125 -30 -43 -70 -157 -62 -178 3 -7 6 -154 6 -326 1 -171 3
-321 6 -332 5 -17 63 -48 134 -71 11 -4 46 28 105 93 48 54 134 148 190 208
57 61 119 128 140 150 100 109 128 291 65 415 -15 30 -17 44 -10 71 27 93 -1
260 -51 310 -23 23 -21 23 -87 -1z m84 -33 c43 -64 58 -159 40 -250 l-7 -38
-40 36 c-54 49 -120 75 -201 82 -38 3 -68 8 -68 11 0 18 60 93 97 121 36 28
126 69 153 71 3 0 15 -15 26 -33z m-93 -217 c92 -46 162 -146 174 -248 6 -54
-8 -135 -34 -191 -15 -32 -81 -117 -138 -176 -11 -11 -67 -72 -125 -135 -221
-242 -213 -235 -241 -217 -13 8 -41 20 -61 27 l-38 12 -1 191 c-1 106 -3 262
-5 347 -3 139 -1 161 18 210 33 84 78 133 161 175 69 35 76 37 157 33 64 -3
97 -10 133 -28z"/>
<path fill="crimson" d="M3135 3926 c-53 -24 -70 -52 -70 -117 0 -52 3 -62 31 -89 42 -42 91
-53 141 -30 100 46 98 194 -3 236 -41 17 -60 17 -99 0z m111 -26 c58 -36 68
-117 22 -167 -69 -74 -188 -28 -188 72 0 47 14 71 53 95 41 25 71 25 113 0z"/>
<path fill="orange" d="M2123 4328 c-51 -55 -77 -211 -52 -302 9 -34 7 -46 -16 -99 -35 -77
-43 -164 -21 -236 18 -60 59 -136 80 -148 8 -4 61 -53 118 -108 178 -172 360
-340 367 -340 3 0 35 11 69 24 l64 24 -8 366 c-8 399 -9 408 -71 490 -32 42
-132 107 -178 115 -28 6 -38 14 -49 40 -19 46 -81 112 -133 142 -32 19 -112
48 -149 54 0 0 -10 -10 -21 -22z m114 -26 c70 -29 173 -126 173 -164 0 -5 -17
-8 -37 -8 -43 0 -127 -21 -163 -40 -14 -7 -44 -28 -68 -47 -24 -20 -46 -32
-49 -29 -4 3 -8 42 -11 86 -4 62 0 91 13 128 37 98 57 108 142 74z m233 -208
c66 -20 116 -51 158 -98 75 -86 82 -131 82 -523 l0 -314 -46 -19 c-25 -11 -51
-20 -58 -20 -13 0 -288 252 -437 400 -109 109 -134 164 -126 281 14 217 216
356 427 293z"/>
<path fill="crimson" d="M2287 3877 c-64 -60 -58 -157 12 -204 59 -40 144 -22 181 39 54 89
-13 198 -122 198 -28 0 -45 -8 -71 -33z m143 -2 c38 -20 50 -43 50 -97 0 -36
-6 -50 -31 -74 -25 -24 -39 -29 -79 -29 -65 0 -100 32 -107 99 -5 42 -3 48 30
81 40 40 86 46 137 20z"/>
<path fill="blue" d="M4990 4243 c0 -5 10 -42 21 -83 28 -101 35 -237 16 -323 l-15 -68 38
-24 c103 -65 213 -195 264 -312 38 -85 47 -42 17 72 -63 233 -160 465 -274
657 -46 78 -67 103 -67 81z m170 -313 c7 -19 28 -66 45 -105 18 -38 46 -115
64 -170 17 -55 36 -115 42 -133 16 -48 6 -48 -21 0 -13 23 -33 53 -44 67 -40
50 -167 170 -187 176 -18 6 -20 13 -15 43 21 134 18 235 -10 347 -6 25 106
-176 126 -225z"/>
<path fill="blue" d="M554 4168 c-131 -199 -256 -527 -320 -837 -19 -89 -4 -122 19 -45 45
148 142 283 275 384 l33 25 -10 65 c-21 129 -9 264 35 400 24 75 13 77 -32 8z
m-20 -123 c-12 -53 -13 -237 -2 -321 2 -15 -15 -35 -60 -73 -64 -54 -148 -157
-179 -221 -46 -98 -4 91 61 271 55 152 116 287 183 402 12 20 10 -2 -3 -58z"/>
<path fill="orange" d="M3643 3564 c-34 -12 -99 -72 -306 -281 l-264 -266 23 -66 23 -66 358
3 358 3 62 29 c89 41 150 101 189 186 25 54 41 74 62 83 72 30 164 157 179
244 l6 37 -69 32 c-78 37 -174 48 -248 29 -40 -10 -50 -8 -102 16 -74 33 -205
41 -271 17z m223 -20 c89 -30 158 -90 200 -172 25 -49 29 -68 28 -137 -1 -65
-5 -89 -26 -130 -37 -71 -92 -122 -173 -161 l-71 -34 -344 -6 -345 -6 -20 54
-21 54 251 257 c187 190 262 261 295 276 57 25 159 27 226 5z m392 -59 c51
-28 54 -31 49 -62 -9 -53 -73 -148 -125 -186 -73 -53 -70 -53 -71 11 0 32 -7
77 -15 100 -18 49 -72 131 -92 139 -8 3 -14 9 -14 13 0 14 39 19 130 16 73 -2
93 -6 138 -31z"/>
<path fill="crimson" d="M3702 3350 c-62 -38 -79 -121 -37 -182 61 -89 205 -64 235 41 32 113
-95 204 -198 141z m127 -13 c38 -19 64 -71 57 -111 -21 -111 -173 -130 -216
-26 -39 95 65 185 159 137z"/>
<path fill="orange" d="M1703 3531 c-29 -10 -58 -23 -66 -29 -8 -7 -16 -10 -19 -7 -3 3 -34
12 -70 19 -78 16 -145 8 -223 -28 -53 -24 -55 -26 -55 -64 0 -81 101 -229 177
-261 22 -9 31 -23 45 -70 31 -105 120 -196 222 -225 46 -14 102 -15 393 -10
186 3 343 7 349 9 6 2 14 15 18 30 4 15 16 46 27 70 l20 43 -58 54 c-32 31
-83 77 -113 103 -30 26 -124 114 -208 194 -89 84 -171 154 -195 165 -60 28
-177 31 -244 7z m242 -29 c39 -20 61 -40 230 -201 44 -42 130 -121 190 -176
61 -54 115 -104 121 -109 8 -8 6 -23 -7 -56 -9 -25 -20 -52 -22 -61 -5 -15
-41 -18 -303 -24 -164 -4 -328 -5 -365 -2 -118 10 -213 76 -267 186 -23 48
-27 68 -27 141 1 65 6 96 22 132 38 84 123 160 213 189 46 15 172 4 215 -19z
m-376 -13 l31 -11 -33 -37 c-47 -53 -80 -126 -85 -190 -5 -86 -7 -87 -50 -56
-20 16 -49 42 -65 59 -34 39 -77 127 -77 160 0 28 37 59 90 74 48 14 150 14
189 1z"/>
<path fill="crimson" d="M1765 3316 c-100 -46 -112 -171 -22 -226 84 -52 197 13 197 112 0 30
-33 83 -63 102 -34 23 -78 28 -112 12z m102 -27 c64 -39 72 -112 19 -165 -43
-43 -93 -46 -142 -9 -63 48 -53 143 18 178 44 22 64 21 105 -4z"/>
<path fill="red" d="M4756 3426 c-57 -56 -95 -131 -104 -204 l-7 -57 -42 3 c-53 4 -76 -8
-97 -53 -13 -27 -15 -43 -7 -69 9 -34 8 -35 -22 -42 -81 -17 -174 -84 -216
-154 -29 -48 -27 -60 17 -102 49 -47 123 -85 193 -99 l56 -11 0 -40 c0 -52 33
-86 93 -96 40 -7 45 -11 51 -39 19 -93 111 -213 163 -213 31 0 117 85 146 144
11 24 24 63 28 87 l7 43 51 -3 c47 -2 53 0 79 30 23 29 27 40 23 81 -5 43 -3
48 16 48 56 0 193 79 232 134 22 32 17 50 -26 99 -45 51 -122 93 -190 105
l-45 8 3 56 c4 52 1 60 -24 83 -20 18 -38 25 -68 25 -23 0 -47 -5 -54 -10 -6
-6 -10 -8 -8 -4 8 11 -23 105 -47 147 -26 44 -97 116 -135 136 -19 10 -27 6
-66 -33z m111 -24 c54 -43 99 -117 109 -180 l7 -43 -27 10 c-14 6 -54 13 -88
17 -60 6 -106 -4 -191 -41 -19 -8 -19 0 -1 90 13 65 97 185 129 185 7 0 35
-17 62 -38z m108 -242 c84 -38 160 -125 186 -212 5 -18 10 -63 10 -100 1 -121
-83 -248 -199 -301 -36 -17 -66 -22 -132 -22 -75 0 -92 4 -144 30 -139 70
-213 235 -171 381 46 163 177 260 337 250 38 -3 86 -14 113 -26z m147 -8 c19
-19 30 -63 20 -79 -4 -7 -29 10 -61 39 -43 39 -51 52 -40 59 18 12 59 2 81
-19z m-499 -8 c4 -4 -7 -21 -24 -38 -17 -17 -38 -43 -47 -58 -21 -36 -29 -35
-37 1 -7 32 7 68 34 88 17 13 63 17 74 7z m644 -164 c51 -23 143 -106 143
-129 0 -21 -74 -93 -120 -116 -41 -21 -130 -46 -130 -37 0 4 7 29 15 56 19 62
19 139 1 199 l-14 47 31 0 c18 0 51 -9 74 -20z m-752 -7 c-29 -69 -27 -171 6
-258 11 -27 19 -52 19 -54 0 -2 -21 -1 -47 3 -63 8 -160 56 -202 100 -40 41
-38 53 23 123 59 68 223 137 201 86z m641 -337 c13 -55 -60 -121 -106 -96 -16
9 -13 15 33 65 29 30 55 54 59 55 4 0 10 -11 14 -24z m-546 -47 c43 -40 51
-52 39 -60 -8 -5 -22 -9 -32 -9 -22 0 -77 52 -77 73 0 14 10 47 14 47 1 0 26
-23 56 -51z m138 -75 c62 -18 183 -14 208 7 7 6 20 9 28 6 18 -7 5 -69 -28
-136 -28 -54 -97 -121 -125 -121 -47 0 -151 163 -151 235 0 30 -3 29 68 9z"/>
<path fill="green" d="M4790 2957 c-13 -7 -35 -28 -48 -47 -52 -77 -5 -185 86 -197 35 -5
49 -1 82 21 44 29 60 59 60 109 -1 90 -101 154 -180 114z m104 -19 c14 -6 35
-30 46 -52 16 -35 18 -47 9 -77 -22 -72 -118 -103 -173 -56 -96 83 3 238 118
185z"/>
<path fill="red" d="M683 3335 c-58 -60 -87 -116 -98 -188 l-7 -44 -47 5 c-44 4 -49 2
-75 -29 -23 -27 -27 -40 -24 -77 2 -36 0 -46 -14 -48 -90 -13 -181 -73 -225
-148 -21 -36 -14 -54 42 -110 56 -55 120 -86 176 -86 27 0 28 0 22 -54 -5 -52
-4 -57 26 -86 32 -32 65 -37 111 -16 12 5 18 -5 28 -46 16 -69 65 -149 115
-187 50 -38 63 -39 108 -2 53 44 91 106 110 179 l16 66 49 2 c63 2 94 35 94
98 l0 42 55 18 c84 26 205 134 205 183 0 8 -21 35 -48 62 -50 50 -131 94 -194
106 -37 7 -37 8 -36 51 2 36 -3 49 -24 71 -22 21 -35 26 -72 25 -44 -2 -46 -1
-46 25 0 79 -121 243 -179 243 -8 0 -39 -25 -68 -55z m123 1 c49 -42 100 -134
109 -198 l7 -47 -56 19 c-66 24 -135 25 -202 5 -65 -20 -64 -20 -64 19 0 40
27 107 63 154 24 32 84 82 97 82 4 0 24 -15 46 -34z m67 -246 c69 -26 141 -95
175 -168 23 -48 27 -70 26 -142 0 -103 -20 -154 -88 -223 -165 -170 -448 -112
-531 108 -41 107 -17 246 56 329 94 106 234 144 362 96z m143 6 c12 -3 27 -20
34 -36 12 -29 5 -74 -10 -68 -15 6 -100 88 -100 97 0 18 35 21 76 7z m-458
-15 c10 -6 7 -12 -13 -25 -14 -9 -38 -35 -54 -56 -31 -42 -41 -38 -41 18 0 51
66 90 108 63z m636 -156 c28 -13 71 -44 95 -69 43 -44 44 -47 31 -72 -36 -67
-137 -138 -214 -151 -41 -6 -41 -6 -21 61 23 76 19 116 -22 250 -6 17 -2 18
37 12 23 -4 66 -18 94 -31z m-744 11 c0 -2 -7 -20 -15 -39 -19 -47 -19 -160 0
-223 8 -27 15 -49 15 -50 0 -1 -23 3 -51 7 -93 15 -208 104 -196 151 10 37 75
96 142 128 52 25 105 39 105 26z m618 -352 c28 -49 -34 -113 -94 -98 -25 6
-24 7 23 59 54 59 58 62 71 39z m-495 -94 c5 0 4 -7 -3 -15 -33 -40 -120 1
-120 56 0 62 10 64 63 10 27 -28 54 -51 60 -51z m351 -47 c-11 -68 -55 -151
-100 -193 -24 -22 -49 -40 -56 -40 -7 0 -37 26 -68 58 -54 57 -90 129 -90 179
0 21 1 21 48 6 58 -18 175 -13 217 10 48 26 57 22 49 -20z"/>
<path fill="green" d="M700 2887 c-63 -32 -88 -122 -50 -184 40 -66 119 -78 187 -27 92 69
43 224 -70 224 -23 0 -53 -6 -67 -13z m106 -13 c88 -42 83 -162 -9 -199 -98
-39 -182 58 -133 154 14 27 66 60 94 61 8 0 29 -7 48 -16z"/>
<path fill="voilet" d="M2722 2923 c-59 -48 -78 -118 -46 -173 24 -39 65 -60 119 -60 42 0
52 5 87 40 39 38 40 42 36 91 -7 73 -47 111 -120 116 -40 3 -58 -1 -76 -14z
m112 -7 c44 -19 66 -52 66 -101 0 -100 -138 -147 -200 -68 -51 65 2 177 88
182 7 1 28 -5 46 -13z"/>
<path fill="orange" d="M3187 2771 l-59 -6 -23 -58 -24 -58 167 -162 c92 -89 214 -208 272
-264 96 -93 110 -103 165 -118 74 -19 159 -12 230 19 44 20 54 21 90 10 66
-20 176 -17 242 7 32 12 64 27 72 32 32 27 -23 175 -90 239 -15 15 -45 38 -67
52 -31 19 -42 34 -50 68 -16 62 -64 129 -127 178 -87 67 -108 70 -444 68 -163
-1 -322 -4 -354 -7z m728 -40 c148 -70 228 -242 179 -387 -27 -79 -90 -155
-157 -188 -79 -38 -161 -51 -233 -36 -52 11 -65 20 -153 103 -310 294 -441
423 -441 433 0 7 9 33 20 58 l19 46 353 0 353 0 60 -29z m316 -350 c40 -45 82
-140 77 -175 -5 -33 -98 -65 -190 -66 -42 0 -89 5 -103 10 l-26 10 31 32 c66
66 110 161 110 241 l0 28 31 -18 c17 -10 49 -38 70 -62z"/>
<path fill="crimson" d="M3710 2548 c-32 -17 -70 -74 -70 -106 0 -102 104 -167 194 -122 47
24 69 61 68 116 -1 41 -7 53 -36 82 -27 28 -44 36 -83 39 -28 2 -58 -2 -73 -9z
m140 -33 c11 -10 25 -35 31 -55 9 -30 8 -43 -5 -69 -56 -107 -200 -84 -213 33
-5 43 -3 48 33 82 35 33 41 36 86 32 27 -3 57 -13 68 -23z"/>
<path fill="orange" d="M1930 2740 c-158 -4 -223 -9 -245 -19 -83 -40 -158 -129 -191 -224
-10 -31 -22 -47 -37 -51 -65 -16 -172 -152 -191 -243 -7 -29 -4 -34 34 -58 23
-15 60 -33 82 -41 46 -16 164 -19 202 -4 20 7 36 3 85 -22 84 -43 174 -49 273
-18 l73 23 248 246 c137 135 253 254 258 264 8 14 4 31 -15 70 -14 29 -27 60
-30 70 -6 19 -61 20 -546 7z m553 -72 l28 -62 -243 -244 c-273 -274 -299 -292
-414 -300 -236 -15 -402 192 -340 423 23 88 86 167 169 212 34 19 187 27 587
31 l185 1 28 -61z m-1001 -301 c6 -72 35 -144 80 -201 39 -48 29 -56 -69 -56
-110 0 -221 50 -207 93 14 47 45 106 71 137 27 33 99 90 113 90 4 0 10 -28 12
-63z"/>
<path fill="crimson" d="M1758 2504 c-78 -42 -76 -178 2 -219 42 -22 92 -19 131 8 43 29 59
60 59 116 0 37 -5 49 -36 77 -30 29 -43 34 -82 34 -26 -1 -59 -7 -74 -16z
m112 -9 c40 -21 60 -53 60 -98 0 -51 -52 -107 -99 -107 -72 0 -126 59 -114
125 7 37 29 64 68 81 39 17 50 17 85 -1z"/>
<path fill="orange" d="M2955 2529 c-16 -10 -45 -22 -63 -25 l-34 -7 4 -376 3 -376 26 -56
c48 -103 132 -172 240 -199 36 -9 49 -19 64 -46 44 -82 156 -155 244 -157 l46
-2 28 55 c25 48 29 66 29 142 0 48 -5 101 -12 118 -11 26 -9 37 16 97 24 55
29 82 29 148 0 141 -2 144 -298 443 -144 144 -268 262 -277 261 -8 0 -28 -9
-45 -20z m312 -261 c245 -247 262 -266 277 -317 22 -74 20 -139 -5 -214 -33
-99 -89 -163 -179 -206 -74 -35 -210 -37 -282 -4 -91 42 -167 135 -189 231 -4
20 -9 189 -10 375 l-1 338 58 29 c33 16 61 29 64 29 3 1 123 -117 267 -261z
m259 -734 c9 -59 -1 -118 -31 -182 -28 -60 -37 -62 -121 -31 -40 15 -73 38
-115 80 -33 33 -59 63 -59 68 0 4 26 11 57 14 66 7 166 53 208 96 27 27 31 28
42 14 7 -9 15 -35 19 -59z"/>
<path fill="crimson" d="M3185 1972 c-76 -18 -118 -111 -82 -182 18 -36 74 -70 116 -70 41 0
88 28 107 62 30 52 5 151 -43 176 -25 13 -74 20 -98 14z m103 -47 c36 -31 46
-73 27 -119 -27 -65 -87 -84 -155 -47 -67 35 -71 131 -9 175 36 25 102 21 137
-9z"/>
<path fill="orange" d="M2563 2491 c-21 -21 -128 -130 -238 -242 -223 -226 -251 -268 -262
-383 -6 -70 9 -153 37 -203 17 -29 17 -35 3 -83 -20 -70 -13 -170 17 -238 30
-69 46 -77 115 -57 90 26 156 78 209 163 16 25 34 42 45 42 30 0 132 58 174
98 21 20 50 60 65 87 32 63 36 136 25 529 l-8 280 -60 23 c-32 13 -65 23 -72
23 -7 0 -30 -17 -50 -39z m112 0 l50 -18 8 -124 c4 -68 6 -236 5 -374 -3 -237
-4 -252 -26 -292 -30 -58 -96 -118 -162 -151 -48 -23 -67 -27 -145 -27 -75 1
-98 5 -139 25 -107 54 -172 147 -183 261 -14 151 16 201 302 493 121 124 225
225 230 225 6 0 33 -8 60 -18z m-441 -968 c43 -22 124 -43 169 -43 l37 0 -17
-27 c-51 -83 -145 -149 -223 -155 -30 -3 -35 1 -59 47 -29 59 -39 157 -21 223
l11 43 36 -36 c20 -20 50 -43 67 -52z"/>
<path fill="crimson" d="M2339 1945 c-38 -20 -62 -63 -63 -111 -2 -84 59 -141 142 -131 95 11
142 109 95 200 -26 51 -118 73 -174 42z m120 -20 c37 -19 63 -73 55 -114 -4
-18 -22 -44 -42 -62 -31 -27 -41 -31 -79 -26 -84 9 -129 96 -86 167 29 49 96
65 152 35z"/>
<path fill="blue" d="M5331 2298 c-18 -40 -51 -100 -73 -133 -45 -67 -183 -205 -204 -205
-17 0 -17 0 1 -75 16 -66 19 -227 6 -290 -5 -22 -12 -56 -17 -75 -13 -62 18
-20 84 112 103 205 167 379 221 597 18 70 28 128 23 133 -5 5 -23 -23 -41 -64z
m-11 -124 c-40 -154 -129 -384 -207 -539 l-30 -59 5 98 c3 58 0 132 -8 182
l-13 83 34 27 c73 59 156 154 194 222 22 39 41 69 43 68 1 -2 -7 -39 -18 -82z"/>
<path fill="blue" d="M250 2225 c0 -86 108 -402 205 -600 69 -140 199 -354 225 -370 25
-16 21 9 -15 93 -49 113 -64 168 -71 272 -5 76 4 179 20 220 4 10 -7 22 -38
39 -97 51 -223 189 -276 303 -12 26 -28 52 -36 59 -11 9 -14 7 -14 -16z m111
-179 c43 -57 139 -146 188 -176 42 -25 42 -25 36 -75 -19 -164 -9 -274 34
-384 12 -29 20 -56 17 -58 -6 -6 -107 160 -154 253 -57 114 -148 348 -177 456
-31 116 -31 124 0 69 14 -24 39 -62 56 -85z"/>
<path fill="red" d="M4543 1830 c-43 -9 -110 -40 -155 -71 -26 -19 -27 -19 -33 0 -11 34
-63 71 -101 71 -40 0 -79 -33 -90 -74 l-6 -25 -38 25 c-71 47 -199 68 -280 45
-59 -16 -45 -167 25 -276 l36 -56 -31 -29 c-42 -39 -42 -96 -1 -136 l30 -29
-31 -64 c-28 -55 -32 -74 -32 -146 -1 -55 3 -88 12 -97 7 -7 43 -14 81 -16 80
-5 153 15 217 59 l42 28 25 -32 c21 -28 30 -32 72 -32 40 0 51 5 76 33 l30 33
65 -32 c56 -28 75 -32 142 -32 112 0 122 8 122 94 0 78 -27 169 -61 205 l-22
23 32 36 c41 47 42 91 1 135 l-29 31 24 38 c39 57 58 136 52 209 -3 35 -9 68
-13 72 -14 13 -115 19 -161 10z m146 -26 c13 -13 11 -117 -3 -167 -17 -59 -52
-127 -66 -127 -4 0 -18 19 -30 43 -30 58 -96 124 -154 154 -48 24 -49 26 -30
40 28 22 103 55 144 64 33 7 130 3 139 -7z m-380 -20 c17 -14 31 -29 31 -32 0
-4 -36 -7 -80 -7 -44 0 -80 3 -80 8 0 16 54 57 76 57 12 0 36 -12 53 -26z
m-235 -24 c28 -14 51 -30 53 -36 2 -6 -14 -19 -36 -29 -22 -10 -56 -35 -76
-56 -36 -39 -85 -125 -85 -150 -1 -20 -47 37 -76 94 -15 29 -27 73 -31 114 -8
88 2 96 117 91 65 -3 97 -10 134 -28z m341 -70 c139 -63 212 -207 181 -355
-55 -265 -368 -360 -559 -170 -185 184 -93 494 164 550 79 17 136 10 214 -25z
m242 -232 c30 -28 30 -74 1 -105 -12 -13 -24 -23 -28 -23 -4 0 -7 34 -7 75 0
41 3 75 6 75 2 0 15 -10 28 -22z m-734 -90 c4 -61 3 -68 -14 -68 -10 0 -25 10
-33 22 -24 34 -20 75 11 106 30 30 30 31 36 -60z m724 -111 c12 -17 29 -49 38
-69 16 -39 24 -156 12 -175 -11 -18 -107 -26 -162 -13 -27 6 -70 23 -94 37
l-44 25 52 30 c59 34 116 96 143 156 10 23 22 42 26 42 4 0 17 -15 29 -33z
m-684 -26 c23 -51 93 -118 158 -152 l51 -27 -39 -26 c-21 -14 -58 -32 -82 -41
-47 -16 -157 -20 -180 -6 -19 12 -25 89 -12 152 13 60 55 139 74 139 7 0 20
-18 30 -39z m396 -199 c-31 -49 -105 -52 -135 -6 -13 19 -12 20 19 17 17 -2
52 0 77 5 25 5 46 7 48 6 2 -1 -2 -11 -9 -22z"/>
<path fill="green" d="M4196 1509 c-30 -24 -56 -69 -56 -98 0 -40 32 -102 61 -116 36 -19
102 -19 138 0 32 16 61 69 61 113 0 35 -36 92 -70 109 -39 20 -103 16 -134 -8z
m148 -26 c52 -52 46 -131 -13 -170 -50 -34 -96 -30 -137 11 -28 28 -34 41 -34
78 0 36 6 50 31 76 27 27 39 32 79 32 38 0 53 -5 74 -27z"/>
<path fill="red" d="M1630 1781 c-53 -12 -91 -30 -129 -58 -31 -24 -34 -25 -43 -8 -16 27
-46 55 -63 56 -8 1 -21 2 -27 3 -25 4 -68 -25 -74 -50 -4 -14 -9 -24 -13 -22
-3 2 -31 15 -62 31 -87 43 -194 54 -251 26 -46 -24 -26 -199 32 -289 27 -41
28 -45 11 -51 -26 -10 -51 -54 -51 -92 0 -35 37 -87 61 -87 7 0 3 -10 -9 -23
-38 -40 -65 -117 -70 -198 -4 -71 -3 -77 19 -93 16 -11 45 -16 95 -16 83 0
121 11 189 56 50 33 50 33 58 11 13 -35 37 -56 72 -63 43 -8 93 19 106 55 l10
28 56 -30 c45 -24 72 -31 132 -35 42 -2 95 1 119 7 l42 12 0 69 c0 81 -27 166
-72 223 -23 29 -26 38 -14 43 41 16 45 120 6 152 l-21 17 25 52 c31 61 46 158
34 221 -4 25 -10 47 -12 50 -9 8 -122 11 -156 3z m143 -30 c7 -7 12 -41 11
-89 0 -68 -5 -85 -34 -140 -18 -34 -38 -61 -44 -59 -6 2 -20 21 -31 42 -37 71
-102 127 -179 155 -22 8 -26 13 -17 23 15 19 108 69 145 78 43 11 134 5 149
-10z m-599 -17 c21 -8 54 -25 73 -39 l35 -23 -50 -26 c-65 -33 -125 -94 -154
-156 -13 -27 -26 -50 -30 -50 -14 0 -47 58 -67 118 -23 69 -28 164 -8 180 28
23 133 21 201 -4z m231 10 c8 -4 22 -19 30 -34 l15 -28 -71 -4 c-80 -3 -92 6
-65 47 16 25 54 33 91 19z m105 -110 c31 -14 75 -47 102 -75 149 -159 101
-413 -96 -517 -44 -23 -64 -27 -136 -27 -104 0 -160 24 -235 100 -61 62 -85
124 -85 217 0 121 57 225 156 283 63 37 87 43 169 44 55 1 82 -5 125 -25z
m237 -216 c30 -28 31 -80 2 -109 -11 -11 -22 -19 -24 -17 -7 8 -15 148 -9 148
4 0 18 -10 31 -22z m-702 -93 c0 -41 -4 -75 -8 -75 -21 0 -57 51 -57 81 0 35
24 69 49 69 13 0 16 -13 16 -75z m744 -154 c11 -20 24 -64 30 -98 15 -81 4
-110 -45 -119 -63 -12 -155 1 -212 30 -28 14 -52 28 -52 30 0 2 21 16 46 31
53 31 129 129 145 187 l11 41 29 -32 c16 -18 38 -50 48 -70z m-634 -95 c24
-20 60 -43 80 -52 l37 -15 -26 -20 c-52 -41 -108 -59 -186 -59 -41 0 -81 4
-89 9 -10 6 -12 28 -10 82 4 76 28 140 71 186 l20 22 29 -59 c18 -35 47 -73
74 -94z m315 -87 c0 -20 -50 -59 -75 -59 -24 0 -75 39 -75 57 0 4 34 9 75 10
42 0 75 -3 75 -8z"/>
<path fill="green" d="M1324 1451 c-46 -28 -64 -60 -64 -109 0 -83 63 -141 139 -128 104 17
144 137 73 217 -36 41 -102 50 -148 20z m128 -30 c29 -26 33 -36 33 -79 0 -39
-5 -56 -24 -76 -78 -83 -220 3 -181 110 27 75 114 97 172 45z"/>
<path fill="red" d="M2728 1311 c-41 -44 -60 -74 -76 -125 -12 -36 -22 -73 -22 -81 0 -11
-7 -14 -24 -9 -69 17 -142 -55 -119 -117 10 -26 9 -27 -26 -33 -57 -9 -136
-53 -190 -107 -72 -71 -73 -82 -15 -140 57 -58 124 -94 203 -110 l56 -11 -3
-48 c-3 -43 -1 -52 25 -76 24 -22 35 -25 74 -22 l47 5 11 -52 c22 -99 123
-214 176 -201 61 15 149 145 161 236 l6 47 49 -5 c44 -4 51 -2 80 27 27 28 31
37 27 76 -2 31 1 45 9 45 7 0 38 10 70 22 65 24 167 117 178 161 14 53 -86
140 -197 171 -31 9 -65 16 -76 16 -18 0 -19 5 -15 40 5 34 2 43 -25 70 -25 25
-39 30 -76 30 -38 0 -46 3 -46 18 0 11 -14 46 -31 80 -34 68 -120 152 -155
152 -14 0 -42 -22 -76 -59z m140 -6 c51 -46 94 -120 107 -184 7 -30 5 -33 -11
-26 -70 29 -208 29 -265 0 -15 -8 -33 -15 -40 -15 -18 0 -3 82 25 137 26 51
101 133 121 133 7 0 36 -20 63 -45z m48 -219 c144 -38 234 -160 234 -316 0
-68 -4 -86 -31 -136 -50 -97 -106 -145 -208 -179 -148 -49 -332 40 -389 188
-44 116 -24 248 51 334 90 101 219 142 343 109z m183 -12 c20 -26 28 -64 15
-77 -4 -4 -24 8 -44 27 -21 18 -45 38 -55 43 -26 15 -9 33 30 33 24 0 39 -7
54 -26z m-483 -6 c6 -9 -8 -30 -44 -66 l-52 -52 -12 24 c-21 48 20 103 78 105
12 1 25 -5 30 -11z m660 -142 c52 -24 134 -97 134 -121 0 -7 -22 -38 -50 -68
-47 -52 -121 -95 -192 -111 l-27 -6 15 42 c9 24 16 75 16 113 1 62 -7 97 -37
169 -8 17 -5 18 41 12 27 -4 72 -18 100 -30z m-766 -3 c0 -5 -7 -26 -15 -48
-19 -54 -19 -161 1 -219 9 -26 14 -49 12 -52 -3 -2 -31 1 -63 8 -64 13 -146
63 -189 115 l-27 32 44 53 c49 61 148 118 203 118 19 0 34 -3 34 -7z m640
-368 c0 -18 -7 -41 -16 -49 -19 -19 -58 -30 -80 -22 -12 5 -5 17 33 60 26 30
51 52 55 50 4 -3 8 -20 8 -39z m-588 -13 c7 -10 30 -31 50 -46 43 -32 41 -46
-5 -46 -40 1 -65 19 -76 56 -14 50 5 71 31 36z m425 -122 c-3 -22 -15 -60 -27
-85 -24 -50 -103 -135 -126 -135 -26 0 -93 71 -124 132 -35 70 -41 125 -12
113 70 -29 179 -30 244 -1 48 21 51 20 45 -24z"/>
<path fill="green" d="M2774 886 c-62 -27 -95 -98 -74 -159 17 -54 52 -80 115 -85 52 -4 56
-3 89 30 65 65 56 152 -23 205 -39 26 -63 28 -107 9z m89 -22 c59 -28 82 -91
55 -149 -27 -59 -128 -75 -173 -27 -56 59 -43 140 30 180 28 16 49 15 88 -4z"/>
<path fill="blue" d="M4275 681 c-21 -19 -144 -59 -218 -71 -73 -12 -183 -10 -268 6 -35 6
-37 5 -81 -57 -79 -110 -170 -191 -278 -245 -48 -24 -65 -44 -36 -44 51 0 344
101 526 182 138 61 398 211 400 231 0 10 -34 9 -45 -2z m-120 -87 c-114 -72
-349 -177 -539 -241 -128 -43 -167 -49 -107 -19 47 25 158 133 208 203 l45 63
41 -8 c71 -12 278 -6 327 11 65 22 70 20 25 -9z"/>
<path fill="blue" d="M1382 600 c9 -28 301 -183 470 -248 184 -72 535 -158 556 -137 12 11
-26 32 -71 39 -63 10 -214 88 -278 143 -48 41 -105 108 -138 162 -8 12 -21 12
-85 1 -109 -18 -252 -9 -350 24 -85 28 -110 32 -104 16z m318 -69 c47 0 110 4
140 9 61 9 49 17 141 -93 52 -61 131 -119 222 -163 39 -18 67 -34 62 -34 -9 0
-168 40 -240 59 -131 36 -465 187 -535 241 -25 19 -24 19 50 0 47 -12 107 -19
160 -19z"/>
</g>
</svg>
